<svg xmlns="http://www.w3.org/2000/svg" xmlns:xlink="http://www.w3.org/1999/xlink" width="1000" zoomAndPan="magnify" viewBox="0 0 750 749.999995" height="1000" preserveAspectRatio="xMidYMid meet" version="1.0"><defs><g/><clipPath id="d7c6801a20"><path d="M 254 172.730469 L 495.449219 172.730469 L 495.449219 288.773438 L 254 288.773438 Z M 254 172.730469 " clip-rule="nonzero"/></clipPath><clipPath id="9a3339477d"><path d="M 414.949219 179.703125 C 402.574219 175.492188 388.507812 172.730469 374.699219 172.730469 C 360.894531 172.730469 347.605469 175.097656 335.363281 179.308594 C 335.101562 179.4375 334.84375 179.4375 334.582031 179.570312 C 288.601562 196.402344 254.734375 240.851562 254.082031 288.773438 L 495.449219 288.773438 C 494.796875 240.589844 461.453125 196.140625 414.949219 179.703125 Z M 414.949219 179.703125 " clip-rule="nonzero"/></clipPath><clipPath id="49c8f59a07"><path d="M 0 0.730469 L 241.449219 0.730469 L 241.449219 116.773438 L 0 116.773438 Z M 0 0.730469 " clip-rule="nonzero"/></clipPath><clipPath id="041f1bc588"><path d="M 160.949219 7.703125 C 148.574219 3.492188 134.507812 0.730469 120.699219 0.730469 C 106.894531 0.730469 93.605469 3.097656 81.363281 7.308594 C 81.101562 7.4375 80.84375 7.4375 80.582031 7.570312 C 34.601562 24.402344 0.734375 68.851562 0.0820312 116.773438 L 241.449219 116.773438 C 240.796875 68.589844 207.453125 24.140625 160.949219 7.703125 Z M 160.949219 7.703125 " clip-rule="nonzero"/></clipPath><clipPath id="f655e47149"><rect x="0" width="242" y="0" height="117"/></clipPath><clipPath id="8cd441199b"><path d="M 151.25 273.300781 L 233.96875 273.300781 L 233.96875 283.582031 L 151.25 283.582031 Z M 151.25 273.300781 " clip-rule="nonzero"/></clipPath><clipPath id="736b3b9cd6"><path d="M 155.625 276.730469 C 153.003906 277.257812 151.28125 277.855469 151.28125 278.445312 C 151.28125 279.03125 152.757812 279.597656 155.378906 280.121094 C 155.460938 280.132812 155.460938 280.140625 155.542969 280.152344 C 166.03125 282.113281 193.730469 283.554688 223.824219 283.582031 L 233.96875 283.582031 L 233.96875 273.300781 L 223.832031 273.300781 C 193.566406 273.328125 165.867188 274.746094 155.625 276.730469 Z M 155.625 276.730469 " clip-rule="nonzero"/></clipPath><clipPath id="eeb277c845"><path d="M 0.25 0.300781 L 82.96875 0.300781 L 82.96875 10.582031 L 0.25 10.582031 Z M 0.25 0.300781 " clip-rule="nonzero"/></clipPath><clipPath id="a900528d38"><path d="M 4.625 3.730469 C 2.003906 4.257812 0.28125 4.855469 0.28125 5.445312 C 0.28125 6.03125 1.757812 6.597656 4.378906 7.121094 C 4.460938 7.132812 4.460938 7.140625 4.542969 7.152344 C 15.03125 9.113281 42.730469 10.554688 72.824219 10.582031 L 82.96875 10.582031 L 82.96875 0.300781 L 72.832031 0.300781 C 42.566406 0.328125 14.867188 1.746094 4.625 3.730469 Z M 4.625 3.730469 " clip-rule="nonzero"/></clipPath><clipPath id="7c948ca124"><rect x="0" width="83" y="0" height="11"/></clipPath><clipPath id="ee30bdf103"><path d="M 516.023438 273.292969 L 598.742188 273.292969 L 598.742188 283.578125 L 516.023438 283.578125 Z M 516.023438 273.292969 " clip-rule="nonzero"/></clipPath><clipPath id="deac0c444e"><path d="M 594.367188 280.144531 C 596.992188 279.617188 598.710938 279.019531 598.710938 278.429688 C 598.710938 277.84375 597.234375 277.277344 594.613281 276.753906 C 594.53125 276.742188 594.53125 276.734375 594.449219 276.722656 C 583.960938 274.761719 556.261719 273.320312 526.167969 273.292969 L 516.023438 273.292969 L 516.023438 283.578125 L 526.160156 283.578125 C 556.425781 283.546875 584.125 282.128906 594.367188 280.144531 Z M 594.367188 280.144531 " clip-rule="nonzero"/></clipPath><clipPath id="3de463f45f"><path d="M 0.0234375 0.292969 L 82.742188 0.292969 L 82.742188 10.578125 L 0.0234375 10.578125 Z M 0.0234375 0.292969 " clip-rule="nonzero"/></clipPath><clipPath id="fdc7fec29f"><path d="M 78.367188 7.144531 C 80.992188 6.617188 82.710938 6.019531 82.710938 5.429688 C 82.710938 4.84375 81.234375 4.277344 78.613281 3.753906 C 78.53125 3.742188 78.53125 3.734375 78.449219 3.722656 C 67.960938 1.761719 40.261719 0.320312 10.167969 0.292969 L 0.0234375 0.292969 L 0.0234375 10.578125 L 10.160156 10.578125 C 40.425781 10.546875 68.125 9.128906 78.367188 7.144531 Z M 78.367188 7.144531 " clip-rule="nonzero"/></clipPath><clipPath id="72cb63af10"><rect x="0" width="83" y="0" height="11"/></clipPath><clipPath id="552826bb8c"><path d="M 165 207 L 245 207 L 245 245 L 165 245 Z M 165 207 " clip-rule="nonzero"/></clipPath><clipPath id="171d5378e9"><path d="M 244.402344 234.710938 L 240.476562 244.21875 L 164.023438 212.636719 L 167.949219 203.128906 Z M 244.402344 234.710938 " clip-rule="nonzero"/></clipPath><clipPath id="200be7e047"><path d="M 170.683594 207.96875 C 168.058594 207.457031 166.238281 207.355469 166.015625 207.898438 C 165.789062 208.441406 166.9375 209.527344 169.160156 211.011719 C 169.234375 211.050781 169.230469 211.0625 169.300781 211.105469 C 178.246094 216.917969 203.296875 228.828125 231.101562 240.34375 L 240.476562 244.21875 L 244.402344 234.710938 L 235.035156 230.839844 C 207.050781 219.3125 180.90625 210.050781 170.683594 207.96875 Z M 170.683594 207.96875 " clip-rule="nonzero"/></clipPath><clipPath id="70e1b1b602"><path d="M 0.601562 0.121094 L 79.558594 0.121094 L 79.558594 37.320312 L 0.601562 37.320312 Z M 0.601562 0.121094 " clip-rule="nonzero"/></clipPath><clipPath id="37cda5999e"><path d="M 79.402344 27.710938 L 75.476562 37.21875 L -0.976562 5.636719 L 2.949219 -3.871094 Z M 79.402344 27.710938 " clip-rule="nonzero"/></clipPath><clipPath id="f69ac8019a"><path d="M 5.683594 0.96875 C 3.058594 0.457031 1.238281 0.355469 1.015625 0.898438 C 0.789062 1.441406 1.9375 2.527344 4.160156 4.011719 C 4.234375 4.050781 4.230469 4.0625 4.300781 4.105469 C 13.246094 9.917969 38.296875 21.828125 66.101562 33.34375 L 75.476562 37.21875 L 79.402344 27.710938 L 70.035156 23.839844 C 42.050781 12.3125 15.90625 3.050781 5.683594 0.96875 Z M 5.683594 0.96875 " clip-rule="nonzero"/></clipPath><clipPath id="671d2cf59f"><rect x="0" width="80" y="0" height="38"/></clipPath><clipPath id="0ff72a4316"><path d="M 218 135 L 275 135 L 275 204 L 218 204 Z M 218 135 " clip-rule="nonzero"/></clipPath><clipPath id="fb3e6b48f0"><path d="M 274.191406 196.730469 L 266.148438 203.140625 L 214.59375 138.449219 L 222.636719 132.042969 Z M 274.191406 196.730469 " clip-rule="nonzero"/></clipPath><clipPath id="83164c74f9"><path d="M 222.679688 137.597656 C 220.636719 135.878906 219.09375 134.90625 218.632812 135.273438 C 218.171875 135.636719 218.648438 137.144531 219.875 139.519531 C 219.917969 139.589844 219.910156 139.597656 219.953125 139.667969 C 224.957031 149.09375 241.089844 171.65625 259.824219 195.207031 L 266.148438 203.140625 L 274.191406 196.730469 L 267.871094 188.804688 C 248.988281 165.152344 230.613281 144.375 222.679688 137.597656 Z M 222.679688 137.597656 " clip-rule="nonzero"/></clipPath><clipPath id="c13efcce6e"><path d="M 0.160156 0 L 56.320312 0 L 56.320312 68.28125 L 0.160156 68.28125 Z M 0.160156 0 " clip-rule="nonzero"/></clipPath><clipPath id="ca78637e4a"><path d="M 56.191406 61.730469 L 48.148438 68.140625 L -3.40625 3.449219 L 4.636719 -2.957031 Z M 56.191406 61.730469 " clip-rule="nonzero"/></clipPath><clipPath id="02d4009a26"><path d="M 4.679688 2.597656 C 2.636719 0.878906 1.09375 -0.09375 0.632812 0.273438 C 0.171875 0.636719 0.648438 2.144531 1.875 4.519531 C 1.917969 4.589844 1.910156 4.597656 1.953125 4.667969 C 6.957031 14.09375 23.089844 36.65625 41.824219 60.207031 L 48.148438 68.140625 L 56.191406 61.730469 L 49.871094 53.804688 C 30.988281 30.152344 12.613281 9.375 4.679688 2.597656 Z M 4.679688 2.597656 " clip-rule="nonzero"/></clipPath><clipPath id="f63b896509"><rect x="0" width="57" y="0" height="69"/></clipPath><clipPath id="5f0463b934"><path d="M 286 93 L 321 93 L 321 174 L 286 174 Z M 286 93 " clip-rule="nonzero"/></clipPath><clipPath id="20dbedd78b"><path d="M 320.214844 169.503906 L 310.566406 173.066406 L 281.917969 95.464844 L 291.566406 91.902344 Z M 320.214844 169.503906 " clip-rule="nonzero"/></clipPath><clipPath id="f7b8bca158"><path d="M 289.863281 97.195312 C 288.460938 94.917969 287.304688 93.507812 286.75 93.714844 C 286.199219 93.917969 286.179688 95.496094 286.597656 98.136719 C 286.617188 98.21875 286.605469 98.222656 286.625 98.304688 C 288.417969 108.820312 296.65625 135.304688 307.050781 163.546875 L 310.566406 173.066406 L 320.214844 169.503906 L 316.703125 159.992188 C 306.195312 131.609375 295.269531 106.117188 289.863281 97.195312 Z M 289.863281 97.195312 " clip-rule="nonzero"/></clipPath><clipPath id="b41252be43"><path d="M 0.078125 0.359375 L 34.398438 0.359375 L 34.398438 80.28125 L 0.078125 80.28125 Z M 0.078125 0.359375 " clip-rule="nonzero"/></clipPath><clipPath id="8013d08062"><path d="M 34.214844 76.503906 L 24.566406 80.066406 L -4.082031 2.464844 L 5.566406 -1.097656 Z M 34.214844 76.503906 " clip-rule="nonzero"/></clipPath><clipPath id="d7aacf75bc"><path d="M 3.863281 4.195312 C 2.460938 1.917969 1.304688 0.507812 0.75 0.714844 C 0.199219 0.917969 0.179688 2.496094 0.597656 5.136719 C 0.617188 5.21875 0.605469 5.222656 0.625 5.304688 C 2.417969 15.820312 10.65625 42.304688 21.050781 70.546875 L 24.566406 80.066406 L 34.214844 76.503906 L 30.703125 66.992188 C 20.195312 38.609375 9.269531 13.117188 3.863281 4.195312 Z M 3.863281 4.195312 " clip-rule="nonzero"/></clipPath><clipPath id="8bbef676b3"><rect x="0" width="35" y="0" height="81"/></clipPath><clipPath id="763c5e43e0"><path d="M 364 77 L 375 77 L 375 161 L 364 161 Z M 364 77 " clip-rule="nonzero"/></clipPath><clipPath id="410621211a"><path d="M 374.765625 160.15625 L 364.484375 160.355469 L 362.886719 77.652344 L 373.167969 77.453125 Z M 374.765625 160.15625 " clip-rule="nonzero"/></clipPath><clipPath id="1e333b118c"><path d="M 369.824219 81.890625 C 369.246094 79.28125 368.613281 77.570312 368.023438 77.582031 C 367.4375 77.59375 366.898438 79.082031 366.429688 81.710938 C 366.417969 81.792969 366.40625 81.792969 366.398438 81.875 C 364.640625 92.402344 363.734375 120.125 364.289062 150.210938 L 364.484375 160.355469 L 374.765625 160.15625 L 374.570312 150.023438 C 373.957031 119.761719 372.003906 92.097656 369.824219 81.890625 Z M 369.824219 81.890625 " clip-rule="nonzero"/></clipPath><clipPath id="c3cb9f3f03"><path d="M 0 0.519531 L 10.878906 0.519531 L 10.878906 83.558594 L 0 83.558594 Z M 0 0.519531 " clip-rule="nonzero"/></clipPath><clipPath id="18b101b5c3"><path d="M 10.765625 83.15625 L 0.484375 83.355469 L -1.113281 0.652344 L 9.167969 0.453125 Z M 10.765625 83.15625 " clip-rule="nonzero"/></clipPath><clipPath id="0fc72f0321"><path d="M 5.824219 4.890625 C 5.246094 2.28125 4.613281 0.570312 4.023438 0.582031 C 3.4375 0.59375 2.898438 2.082031 2.429688 4.710938 C 2.417969 4.792969 2.40625 4.792969 2.398438 4.875 C 0.640625 15.402344 -0.265625 43.125 0.289062 73.210938 L 0.484375 83.355469 L 10.765625 83.15625 L 10.570312 73.023438 C 9.957031 42.761719 8.003906 15.097656 5.824219 4.890625 Z M 5.824219 4.890625 " clip-rule="nonzero"/></clipPath><clipPath id="121c4e3267"><rect x="0" width="11" y="0" height="84"/></clipPath><clipPath id="dbbebb1ce1"><path d="M 426 90 L 455 90 L 455 172 L 426 172 Z M 426 90 " clip-rule="nonzero"/></clipPath><clipPath id="9973db0bd8"><path d="M 436.542969 171.171875 L 426.632812 168.417969 L 448.785156 88.722656 L 458.695312 91.476562 Z M 436.542969 171.171875 " clip-rule="nonzero"/></clipPath><clipPath id="b02b1d87e1"><path d="M 454.21875 94.769531 C 454.414062 92.101562 454.296875 90.285156 453.730469 90.125 C 453.160156 89.96875 452.222656 91.238281 451.015625 93.625 C 450.984375 93.703125 450.972656 93.699219 450.941406 93.773438 C 446.242188 103.355469 437.4375 129.65625 429.351562 158.644531 L 426.632812 168.417969 L 436.542969 171.171875 L 439.257812 161.40625 C 447.335938 132.238281 453.382812 105.171875 454.21875 94.769531 Z M 454.21875 94.769531 " clip-rule="nonzero"/></clipPath><clipPath id="97487f3a80"><path d="M 0.480469 0 L 28.558594 0 L 28.558594 81.359375 L 0.480469 81.359375 Z M 0.480469 0 " clip-rule="nonzero"/></clipPath><clipPath id="290c3bb39e"><path d="M 10.542969 81.171875 L 0.632812 78.417969 L 22.785156 -1.277344 L 32.695312 1.476562 Z M 10.542969 81.171875 " clip-rule="nonzero"/></clipPath><clipPath id="adf8e53719"><path d="M 28.21875 4.769531 C 28.414062 2.101562 28.296875 0.285156 27.730469 0.125 C 27.160156 -0.03125 26.222656 1.238281 25.015625 3.625 C 24.984375 3.703125 24.972656 3.699219 24.941406 3.773438 C 20.242188 13.355469 11.4375 39.65625 3.351562 68.644531 L 0.632812 78.417969 L 10.542969 81.171875 L 13.257812 71.40625 C 21.335938 42.238281 27.382812 15.171875 28.21875 4.769531 Z M 28.21875 4.769531 " clip-rule="nonzero"/></clipPath><clipPath id="1d61ab9c91"><rect x="0" width="29" y="0" height="82"/></clipPath><clipPath id="39132327ae"><path d="M 495 186 L 571 186 L 571 231 L 495 231 Z M 495 186 " clip-rule="nonzero"/></clipPath><clipPath id="d6ad6d4a80"><path d="M 500.347656 230.753906 L 495.453125 221.707031 L 568.195312 182.328125 L 573.089844 191.371094 Z M 500.347656 230.753906 " clip-rule="nonzero"/></clipPath><clipPath id="ea2a4109dc"><path d="M 567.613281 190.4375 C 569.667969 188.726562 570.894531 187.378906 570.613281 186.863281 C 570.335938 186.34375 568.769531 186.550781 566.214844 187.339844 C 566.136719 187.367188 566.132812 187.359375 566.054688 187.386719 C 555.898438 190.65625 530.851562 202.574219 504.371094 216.878906 L 495.453125 221.707031 L 500.347656 230.753906 L 509.261719 225.925781 C 535.863281 211.492188 559.546875 197.058594 567.613281 190.4375 Z M 567.613281 190.4375 " clip-rule="nonzero"/></clipPath><clipPath id="4db5d12a7f"><path d="M 0.359375 0.238281 L 75.960938 0.238281 L 75.960938 44.878906 L 0.359375 44.878906 Z M 0.359375 0.238281 " clip-rule="nonzero"/></clipPath><clipPath id="feede04374"><path d="M 5.347656 44.753906 L 0.453125 35.707031 L 73.195312 -3.671875 L 78.089844 5.371094 Z M 5.347656 44.753906 " clip-rule="nonzero"/></clipPath><clipPath id="caa0c085a3"><path d="M 72.613281 4.4375 C 74.667969 2.726562 75.894531 1.378906 75.613281 0.863281 C 75.335938 0.34375 73.769531 0.550781 71.214844 1.339844 C 71.136719 1.367188 71.132812 1.359375 71.054688 1.386719 C 60.898438 4.65625 35.851562 16.574219 9.371094 30.878906 L 0.453125 35.707031 L 5.347656 44.753906 L 14.261719 39.925781 C 40.863281 25.492188 64.546875 11.058594 72.613281 4.4375 Z M 72.613281 4.4375 " clip-rule="nonzero"/></clipPath><clipPath id="dea5768672"><rect x="0" width="76" y="0" height="45"/></clipPath><clipPath id="384d969a35"><path d="M 463 133 L 525 133 L 525 197 L 463 197 Z M 463 133 " clip-rule="nonzero"/></clipPath><clipPath id="924232e631"><path d="M 470.554688 196.773438 L 463.128906 189.65625 L 520.367188 129.9375 L 527.792969 137.054688 Z M 470.554688 196.773438 " clip-rule="nonzero"/></clipPath><clipPath id="b4b93e02fa"><path d="M 522.289062 137.839844 C 523.722656 135.582031 524.480469 133.921875 524.058594 133.515625 C 523.632812 133.109375 522.203125 133.78125 520.011719 135.316406 C 519.945312 135.367188 519.9375 135.359375 519.875 135.410156 C 511.203125 141.625 490.992188 160.625 470.148438 182.332031 L 463.128906 189.65625 L 470.554688 196.773438 L 477.570312 189.453125 C 498.492188 167.585938 516.632812 146.605469 522.289062 137.839844 Z M 522.289062 137.839844 " clip-rule="nonzero"/></clipPath><clipPath id="b04523e87b"><path d="M 0 0 L 61.640625 0 L 61.640625 63.800781 L 0 63.800781 Z M 0 0 " clip-rule="nonzero"/></clipPath><clipPath id="04b7d8e2b2"><path d="M 7.554688 63.773438 L 0.128906 56.65625 L 57.367188 -3.0625 L 64.792969 4.054688 Z M 7.554688 63.773438 " clip-rule="nonzero"/></clipPath><clipPath id="846ceea099"><path d="M 59.289062 4.839844 C 60.722656 2.582031 61.480469 0.921875 61.058594 0.515625 C 60.632812 0.109375 59.203125 0.78125 57.011719 2.316406 C 56.945312 2.367188 56.9375 2.359375 56.875 2.410156 C 48.203125 8.625 27.992188 27.625 7.148438 49.332031 L 0.128906 56.65625 L 7.554688 63.773438 L 14.570312 56.453125 C 35.492188 34.585938 53.632812 13.605469 59.289062 4.839844 Z M 59.289062 4.839844 " clip-rule="nonzero"/></clipPath><clipPath id="62f7469c6b"><rect x="0" width="62" y="0" height="64"/></clipPath><clipPath id="2e190fc02f"><path d="M 32.949219 32.949219 L 716.949219 32.949219 L 716.949219 716.949219 L 32.949219 716.949219 Z M 32.949219 32.949219 " clip-rule="nonzero"/></clipPath><clipPath id="682d1c9d0b"><path d="M 336 552 L 488 552 L 488 683 L 336 683 Z M 336 552 " clip-rule="nonzero"/></clipPath><clipPath id="2853a11d24"><path d="M 458.820312 531.285156 L 502.867188 601.929688 L 373.03125 682.875 L 328.988281 612.230469 Z M 458.820312 531.285156 " clip-rule="nonzero"/></clipPath><clipPath id="f880b973c9"><path d="M 9 24 L 113 24 L 113 100 L 9 100 Z M 9 24 " clip-rule="nonzero"/></clipPath><clipPath id="3f0c15ca4f"><path d="M 122.820312 -20.714844 L 166.867188 49.929688 L 37.03125 130.875 L -7.011719 60.230469 Z M 122.820312 -20.714844 " clip-rule="nonzero"/></clipPath><clipPath id="06bfca7514"><path d="M 208.269531 23.699219 L 118.988281 -119.496094 L -52.847656 -12.363281 L 36.429688 130.835938 Z M 208.269531 23.699219 " clip-rule="nonzero"/></clipPath><clipPath id="61fa534034"><path d="M 98 4 L 122 4 L 122 28 L 98 28 Z M 98 4 " clip-rule="nonzero"/></clipPath><clipPath id="59fcc7bc51"><path d="M 122.820312 -20.714844 L 166.867188 49.929688 L 37.03125 130.875 L -7.011719 60.230469 Z M 122.820312 -20.714844 " clip-rule="nonzero"/></clipPath><clipPath id="2c68d0366c"><path d="M 208.269531 23.699219 L 118.988281 -119.496094 L -52.847656 -12.363281 L 36.429688 130.835938 Z M 208.269531 23.699219 " clip-rule="nonzero"/></clipPath><clipPath id="661fe55df1"><path d="M 111 27 L 126 27 L 126 41 L 111 41 Z M 111 27 " clip-rule="nonzero"/></clipPath><clipPath id="35859c0301"><path d="M 122.820312 -20.714844 L 166.867188 49.929688 L 37.03125 130.875 L -7.011719 60.230469 Z M 122.820312 -20.714844 " clip-rule="nonzero"/></clipPath><clipPath id="573ddb25ac"><path d="M 208.269531 23.699219 L 118.988281 -119.496094 L -52.847656 -12.363281 L 36.429688 130.835938 Z M 208.269531 23.699219 " clip-rule="nonzero"/></clipPath><clipPath id="c51e3650db"><path d="M 115 42 L 129 42 L 129 55 L 115 55 Z M 115 42 " clip-rule="nonzero"/></clipPath><clipPath id="5ba969dc1f"><path d="M 122.820312 -20.714844 L 166.867188 49.929688 L 37.03125 130.875 L -7.011719 60.230469 Z M 122.820312 -20.714844 " clip-rule="nonzero"/></clipPath><clipPath id="51c9133669"><path d="M 208.269531 23.699219 L 118.988281 -119.496094 L -52.847656 -12.363281 L 36.429688 130.835938 Z M 208.269531 23.699219 " clip-rule="nonzero"/></clipPath><clipPath id="43b930b45e"><path d="M 116 56 L 128 56 L 128 67 L 116 67 Z M 116 56 " clip-rule="nonzero"/></clipPath><clipPath id="5eeb9cd3fe"><path d="M 122.820312 -20.714844 L 166.867188 49.929688 L 37.03125 130.875 L -7.011719 60.230469 Z M 122.820312 -20.714844 " clip-rule="nonzero"/></clipPath><clipPath id="0fd6392424"><path d="M 208.269531 23.699219 L 118.988281 -119.496094 L -52.847656 -12.363281 L 36.429688 130.835938 Z M 208.269531 23.699219 " clip-rule="nonzero"/></clipPath><clipPath id="8bf5dee891"><path d="M 113 69 L 124 69 L 124 79 L 113 79 Z M 113 69 " clip-rule="nonzero"/></clipPath><clipPath id="1f28e17517"><path d="M 122.820312 -20.714844 L 166.867188 49.929688 L 37.03125 130.875 L -7.011719 60.230469 Z M 122.820312 -20.714844 " clip-rule="nonzero"/></clipPath><clipPath id="be47fa90e5"><path d="M 208.269531 23.699219 L 118.988281 -119.496094 L -52.847656 -12.363281 L 36.429688 130.835938 Z M 208.269531 23.699219 " clip-rule="nonzero"/></clipPath><clipPath id="021a23ad88"><rect x="0" width="152" y="0" height="131"/></clipPath><clipPath id="fde593a103"><rect x="0" width="562" y="0" height="119"/></clipPath><clipPath id="09678ebb7b"><rect x="0" width="547" y="0" height="125"/></clipPath><clipPath id="fdd1195ba4"><path d="M 269 556 L 368 556 L 368 646 L 269 646 Z M 269 556 " clip-rule="nonzero"/></clipPath><clipPath id="e61f6277d3"><path d="M 377.253906 516.179688 L 421.300781 586.820312 L 291.46875 667.769531 L 247.421875 597.125 Z M 377.253906 516.179688 " clip-rule="nonzero"/></clipPath><clipPath id="57ac61d36c"><path d="M 418.84375 490.25 L 508.125 633.445312 L 336.285156 740.582031 L 247.007812 597.382812 Z M 418.84375 490.25 " clip-rule="nonzero"/></clipPath><clipPath id="492f9248c3"><path d="M 370 570 L 395 570 L 395 593 L 370 593 Z M 370 570 " clip-rule="nonzero"/></clipPath><clipPath id="d7514d755b"><path d="M 377.253906 516.179688 L 421.300781 586.820312 L 291.46875 667.769531 L 247.421875 597.125 Z M 377.253906 516.179688 " clip-rule="nonzero"/></clipPath><clipPath id="1c96f7d33c"><path d="M 418.84375 490.25 L 508.125 633.445312 L 336.285156 740.582031 L 247.007812 597.382812 Z M 418.84375 490.25 " clip-rule="nonzero"/></clipPath><clipPath id="3b082b5cad"><path d="M 362 559 L 378 559 L 378 573 L 362 573 Z M 362 559 " clip-rule="nonzero"/></clipPath><clipPath id="6b2ca0fbcc"><path d="M 377.253906 516.179688 L 421.300781 586.820312 L 291.46875 667.769531 L 247.421875 597.125 Z M 377.253906 516.179688 " clip-rule="nonzero"/></clipPath><clipPath id="762c100520"><path d="M 418.84375 490.25 L 508.125 633.445312 L 336.285156 740.582031 L 247.007812 597.382812 Z M 418.84375 490.25 " clip-rule="nonzero"/></clipPath><clipPath id="69c2f07c38"><path d="M 352 550 L 366 550 L 366 563 L 352 563 Z M 352 550 " clip-rule="nonzero"/></clipPath><clipPath id="a96b7ce4c6"><path d="M 377.253906 516.179688 L 421.300781 586.820312 L 291.46875 667.769531 L 247.421875 597.125 Z M 377.253906 516.179688 " clip-rule="nonzero"/></clipPath><clipPath id="bd0fc850f4"><path d="M 418.84375 490.25 L 508.125 633.445312 L 336.285156 740.582031 L 247.007812 597.382812 Z M 418.84375 490.25 " clip-rule="nonzero"/></clipPath><clipPath id="9183132fa9"><path d="M 341 545 L 353 545 L 353 557 L 341 557 Z M 341 545 " clip-rule="nonzero"/></clipPath><clipPath id="6522fe4c54"><path d="M 377.253906 516.179688 L 421.300781 586.820312 L 291.46875 667.769531 L 247.421875 597.125 Z M 377.253906 516.179688 " clip-rule="nonzero"/></clipPath><clipPath id="98825d2cea"><path d="M 418.84375 490.25 L 508.125 633.445312 L 336.285156 740.582031 L 247.007812 597.382812 Z M 418.84375 490.25 " clip-rule="nonzero"/></clipPath><clipPath id="eb8c7dcdc7"><path d="M 329 543 L 340 543 L 340 554 L 329 554 Z M 329 543 " clip-rule="nonzero"/></clipPath><clipPath id="0bce7143f7"><path d="M 377.253906 516.179688 L 421.300781 586.820312 L 291.46875 667.769531 L 247.421875 597.125 Z M 377.253906 516.179688 " clip-rule="nonzero"/></clipPath><clipPath id="930a3ab508"><path d="M 418.84375 490.25 L 508.125 633.445312 L 336.285156 740.582031 L 247.007812 597.382812 Z M 418.84375 490.25 " clip-rule="nonzero"/></clipPath></defs><g clip-path="url(#d7c6801a20)"><g clip-path="url(#9a3339477d)"><g transform="matrix(1, 0, 0, 1, 254, 172)"><g clip-path="url(#f655e47149)"><g clip-path="url(#49c8f59a07)"><g clip-path="url(#041f1bc588)"><path fill="#ffeea5" d="M 241.449219 116.773438 L 0.300781 116.773438 L 0.300781 0.730469 L 241.449219 0.730469 Z M 241.449219 116.773438 " fill-opacity="1" fill-rule="nonzero"/></g></g></g></g></g></g><g clip-path="url(#8cd441199b)"><g clip-path="url(#736b3b9cd6)"><g transform="matrix(1, 0, 0, 1, 151, 273)"><g clip-path="url(#7c948ca124)"><g clip-path="url(#eeb277c845)"><g clip-path="url(#a900528d38)"><path fill="#ffeea5" d="M 82.96875 0.300781 L 82.96875 10.582031 L 0.292969 10.582031 L 0.292969 0.300781 Z M 82.96875 0.300781 " fill-opacity="1" fill-rule="nonzero"/></g></g></g></g></g></g><g clip-path="url(#ee30bdf103)"><g clip-path="url(#deac0c444e)"><g transform="matrix(1, 0, 0, 1, 516, 273)"><g clip-path="url(#72cb63af10)"><g clip-path="url(#3de463f45f)"><g clip-path="url(#fdc7fec29f)"><path fill="#ffeea5" d="M 0.0234375 10.578125 L 0.0234375 0.292969 L 82.703125 0.292969 L 82.703125 10.578125 Z M 0.0234375 10.578125 " fill-opacity="1" fill-rule="nonzero"/></g></g></g></g></g></g><g clip-path="url(#552826bb8c)"><g clip-path="url(#171d5378e9)"><g clip-path="url(#200be7e047)"><g transform="matrix(1, 0, 0, 1, 165, 207)"><g clip-path="url(#671d2cf59f)"><g clip-path="url(#70e1b1b602)"><g clip-path="url(#37cda5999e)"><g clip-path="url(#f69ac8019a)"><path fill="#ffeea5" d="M 79.402344 27.710938 L 75.476562 37.21875 L -0.9375 5.652344 L 2.988281 -3.855469 Z M 79.402344 27.710938 " fill-opacity="1" fill-rule="nonzero"/></g></g></g></g></g></g></g></g><g clip-path="url(#0ff72a4316)"><g clip-path="url(#fb3e6b48f0)"><g clip-path="url(#83164c74f9)"><g transform="matrix(1, 0, 0, 1, 218, 135)"><g clip-path="url(#f63b896509)"><g clip-path="url(#c13efcce6e)"><g clip-path="url(#ca78637e4a)"><g clip-path="url(#02d4009a26)"><path fill="#ffeea5" d="M 56.191406 61.730469 L 48.148438 68.140625 L -3.378906 3.484375 L 4.664062 -2.925781 Z M 56.191406 61.730469 " fill-opacity="1" fill-rule="nonzero"/></g></g></g></g></g></g></g></g><g clip-path="url(#5f0463b934)"><g clip-path="url(#20dbedd78b)"><g clip-path="url(#f7b8bca158)"><g transform="matrix(1, 0, 0, 1, 286, 93)"><g clip-path="url(#8bbef676b3)"><g clip-path="url(#b41252be43)"><g clip-path="url(#8013d08062)"><g clip-path="url(#d7aacf75bc)"><path fill="#ffeea5" d="M 34.214844 76.503906 L 24.566406 80.066406 L -4.066406 2.503906 L 5.582031 -1.058594 Z M 34.214844 76.503906 " fill-opacity="1" fill-rule="nonzero"/></g></g></g></g></g></g></g></g><g clip-path="url(#763c5e43e0)"><g clip-path="url(#410621211a)"><g clip-path="url(#1e333b118c)"><g transform="matrix(1, 0, 0, 1, 364, 77)"><g clip-path="url(#121c4e3267)"><g clip-path="url(#c3cb9f3f03)"><g clip-path="url(#18b101b5c3)"><g clip-path="url(#0fc72f0321)"><path fill="#ffeea5" d="M 10.765625 83.15625 L 0.484375 83.355469 L -1.113281 0.691406 L 9.167969 0.492188 Z M 10.765625 83.15625 " fill-opacity="1" fill-rule="nonzero"/></g></g></g></g></g></g></g></g><g clip-path="url(#dbbebb1ce1)"><g clip-path="url(#9973db0bd8)"><g clip-path="url(#b02b1d87e1)"><g transform="matrix(1, 0, 0, 1, 426, 90)"><g clip-path="url(#1d61ab9c91)"><g clip-path="url(#97487f3a80)"><g clip-path="url(#290c3bb39e)"><g clip-path="url(#adf8e53719)"><path fill="#ffeea5" d="M 10.542969 81.171875 L 0.632812 78.417969 L 22.773438 -1.238281 L 32.683594 1.515625 Z M 10.542969 81.171875 " fill-opacity="1" fill-rule="nonzero"/></g></g></g></g></g></g></g></g><g clip-path="url(#39132327ae)"><g clip-path="url(#d6ad6d4a80)"><g clip-path="url(#ea2a4109dc)"><g transform="matrix(1, 0, 0, 1, 495, 186)"><g clip-path="url(#dea5768672)"><g clip-path="url(#4db5d12a7f)"><g clip-path="url(#feede04374)"><g clip-path="url(#caa0c085a3)"><path fill="#ffeea5" d="M 5.347656 44.753906 L 0.453125 35.707031 L 73.160156 -3.652344 L 78.054688 5.390625 Z M 5.347656 44.753906 " fill-opacity="1" fill-rule="nonzero"/></g></g></g></g></g></g></g></g><g clip-path="url(#384d969a35)"><g clip-path="url(#924232e631)"><g clip-path="url(#b4b93e02fa)"><g transform="matrix(1, 0, 0, 1, 463, 133)"><g clip-path="url(#62f7469c6b)"><g clip-path="url(#b04523e87b)"><g clip-path="url(#04b7d8e2b2)"><g clip-path="url(#846ceea099)"><path fill="#ffeea5" d="M 7.554688 63.773438 L 0.128906 56.65625 L 57.339844 -3.03125 L 64.765625 4.082031 Z M 7.554688 63.773438 " fill-opacity="1" fill-rule="nonzero"/></g></g></g></g></g></g></g></g><g clip-path="url(#2e190fc02f)"><path fill="#2a6fd3" d="M 374.996094 32.949219 C 186.199219 32.949219 32.949219 186.199219 32.949219 374.996094 C 32.949219 563.789062 186.199219 717.039062 374.996094 717.039062 C 563.789062 717.039062 717.039062 563.789062 717.039062 374.996094 C 717.039062 186.199219 563.789062 32.949219 374.996094 32.949219 Z M 374.996094 51.949219 C 553.519531 51.949219 698.039062 196.46875 698.039062 374.996094 C 698.039062 553.519531 553.519531 698.039062 374.996094 698.039062 C 196.46875 698.039062 51.949219 553.519531 51.949219 374.996094 C 51.949219 196.46875 196.46875 51.949219 374.996094 51.949219 Z M 374.996094 51.949219 " fill-opacity="1" fill-rule="nonzero"/></g><g clip-path="url(#682d1c9d0b)"><g clip-path="url(#2853a11d24)"><g transform="matrix(1, 0, 0, 1, 336, 552)"><g clip-path="url(#021a23ad88)"><g clip-path="url(#f880b973c9)"><g clip-path="url(#3f0c15ca4f)"><g clip-path="url(#06bfca7514)"><path fill="#2a6fd3" d="M 31.75 62.589844 C 36.089844 62.339844 40.460938 62.363281 44.753906 61.746094 C 50.289062 60.953125 55.558594 59.386719 60.367188 56.542969 C 63.476562 54.707031 65.78125 51.960938 67.539062 48.667969 C 69.019531 45.902344 70.09375 42.914062 71.28125 39.984375 C 72.679688 36.535156 74.394531 33.304688 76.671875 30.472656 C 77.703125 29.1875 78.898438 28.085938 80.222656 27.132812 C 82.097656 25.78125 84.238281 25.226562 86.46875 24.882812 C 88.511719 24.566406 90.589844 24.589844 92.664062 24.902344 C 94.582031 25.1875 96.386719 25.976562 98.082031 27.085938 C 101.097656 29.058594 103.480469 31.734375 105.527344 34.789062 C 107.117188 37.152344 108.46875 39.660156 109.492188 42.320312 C 110.835938 45.804688 111.816406 49.382812 112.226562 53.089844 C 112.679688 57.15625 112.78125 61.191406 112.34375 65.195312 C 111.910156 69.195312 110.8125 72.894531 108.636719 76.105469 C 107.507812 77.765625 106.074219 79.097656 104.476562 80.230469 C 104.09375 80.5 103.382812 80.851562 103.015625 81.078125 C 100.28125 82.773438 97.207031 83.558594 94.121094 84.285156 C 89.800781 85.304688 85.339844 85.5 80.917969 85.9375 C 77.421875 86.28125 73.960938 86.835938 70.582031 87.753906 C 67.085938 88.703125 63.683594 89.9375 60.296875 91.203125 C 59.433594 91.527344 58.589844 91.996094 57.726562 92.214844 C 56.859375 92.429688 56.101562 92.914062 55.203125 93.035156 C 54.703125 93.101562 54.238281 93.386719 53.757812 93.574219 C 49.976562 95.027344 46.136719 96.328125 42.246094 97.449219 C 37.265625 98.890625 32.183594 99.917969 26.855469 99.394531 C 23.3125 99.046875 19.894531 98.140625 16.824219 95.867188 C 13.707031 93.550781 11.683594 90.433594 10.570312 86.625 C 9.839844 84.125 9.425781 81.605469 9.492188 79.03125 C 9.570312 75.984375 10.410156 73.265625 12.097656 70.917969 C 14.363281 67.765625 17.464844 65.875 20.945312 64.5625 C 24.402344 63.257812 28.046875 62.808594 31.75 62.59375 Z M 31.75 62.589844 " fill-opacity="1" fill-rule="nonzero"/></g></g></g><g clip-path="url(#61fa534034)"><g clip-path="url(#59fcc7bc51)"><g clip-path="url(#2c68d0366c)"><path fill="#2a6fd3" d="M 120.890625 10.769531 C 122.476562 14.566406 122.070312 18.027344 119.851562 21.140625 C 118.285156 23.335938 116.203125 24.800781 113.679688 26.058594 C 111.113281 27.128906 108.261719 27.730469 105.179688 26.855469 C 101.257812 25.738281 98.347656 21.429688 98.609375 17.15625 C 98.804688 14.039062 100.070312 11.53125 101.992188 9.378906 C 104.597656 6.457031 107.851562 4.855469 111.734375 4.753906 C 115.808594 4.644531 119.097656 6.46875 120.890625 10.769531 Z M 120.890625 10.769531 " fill-opacity="1" fill-rule="nonzero"/></g></g></g><g clip-path="url(#661fe55df1)"><g clip-path="url(#35859c0301)"><g clip-path="url(#573ddb25ac)"><path fill="#2a6fd3" d="M 114.886719 40.371094 C 112.152344 39.15625 110.84375 35.9375 112.011719 33.160156 C 113.59375 29.398438 116.457031 27.667969 120.34375 27.734375 C 121.777344 27.753906 123.113281 28.339844 124.21875 29.453125 C 125.710938 30.964844 126.023438 32.785156 125.574219 34.722656 C 124.914062 37.585938 122.988281 39.203125 120.703125 40.347656 C 118.757812 41.007812 116.863281 41.25 114.886719 40.371094 Z M 114.886719 40.371094 " fill-opacity="1" fill-rule="nonzero"/></g></g></g><g clip-path="url(#c51e3650db)"><g clip-path="url(#5ba969dc1f)"><g clip-path="url(#51c9133669)"><path fill="#2a6fd3" d="M 119.480469 53.96875 C 116.269531 53.039062 114.808594 49.632812 116.34375 46.636719 C 118.019531 43.359375 121.722656 41.835938 125.210938 42.980469 C 126.578125 43.429688 127.613281 44.417969 128.1875 45.816406 C 128.972656 47.714844 128.511719 49.359375 127.574219 50.882812 C 125.949219 53.519531 122.464844 54.832031 119.480469 53.96875 Z M 119.480469 53.96875 " fill-opacity="1" fill-rule="nonzero"/></g></g></g><g clip-path="url(#43b930b45e)"><g clip-path="url(#5eeb9cd3fe)"><g clip-path="url(#0fd6392424)"><path fill="#2a6fd3" d="M 119.332031 66.277344 C 116.636719 65.25 115.640625 62.289062 117.207031 59.902344 C 118.882812 57.34375 121.292969 56.40625 124.25 56.984375 C 127.394531 57.597656 128.722656 61.28125 126.796875 63.894531 C 125.996094 64.976562 125.105469 65.683594 123.929688 66.171875 C 122.445312 66.789062 120.910156 66.878906 119.335938 66.277344 Z M 119.332031 66.277344 " fill-opacity="1" fill-rule="nonzero"/></g></g></g><g clip-path="url(#8bf5dee891)"><g clip-path="url(#1f28e17517)"><g clip-path="url(#be47fa90e5)"><path fill="#2a6fd3" d="M 114.378906 71.449219 C 115.035156 70.660156 115.902344 70.175781 116.730469 69.8125 C 118.09375 69.28125 119.410156 69.109375 120.78125 69.53125 C 123.558594 70.382812 124.621094 73.144531 122.992188 75.503906 C 121.398438 77.8125 119.117188 78.632812 116.371094 78.070312 C 114.890625 77.765625 113.785156 76.863281 113.34375 75.238281 C 112.929688 73.707031 113.496094 72.503906 114.378906 71.449219 Z M 114.378906 71.449219 " fill-opacity="1" fill-rule="nonzero"/></g></g></g></g></g></g></g><g transform="matrix(1, 0, 0, 1, 90, 313)"><g clip-path="url(#fde593a103)"><g fill="#2a6fd3" fill-opacity="1"><g transform="translate(2.49959, 90.704978)"><g><path d="M 15.421875 -88.5 C 17.472656 -88.5 19.234375 -87.757812 20.703125 -86.28125 C 22.179688 -84.800781 22.921875 -83.039062 22.921875 -81 L 22.921875 -6.8125 C 22.921875 -4.769531 22.179688 -3.007812 20.703125 -1.53125 C 19.234375 -0.0507812 17.398438 0.6875 15.203125 0.6875 C 13.160156 0.6875 11.398438 -0.0507812 9.921875 -1.53125 C 8.453125 -3.007812 7.71875 -4.769531 7.71875 -6.8125 L 7.71875 -81 C 7.71875 -83.039062 8.472656 -84.800781 9.984375 -86.28125 C 11.492188 -87.757812 13.304688 -88.5 15.421875 -88.5 Z M 15.421875 -88.5 "/></g></g></g><g fill="#2a6fd3" fill-opacity="1"><g transform="translate(26.881439, 90.704978)"><g><path d="M 11.34375 -80.890625 C 11.34375 -83.003906 12.078125 -84.800781 13.546875 -86.28125 C 15.023438 -87.757812 16.828125 -88.5 18.953125 -88.5 C 21.066406 -88.5 22.859375 -87.757812 24.328125 -86.28125 C 25.804688 -84.800781 26.546875 -83.003906 26.546875 -80.890625 L 26.546875 -13.84375 L 52.875 -13.84375 C 54.832031 -13.84375 56.472656 -13.179688 57.796875 -11.859375 C 59.128906 -10.535156 59.796875 -8.890625 59.796875 -6.921875 C 59.796875 -5.023438 59.128906 -3.394531 57.796875 -2.03125 C 56.472656 -0.675781 54.832031 0 52.875 0 L 16 0 C 14.789062 0 13.710938 -0.472656 12.765625 -1.421875 C 11.816406 -2.367188 11.34375 -3.445312 11.34375 -4.65625 Z M 11.34375 -80.890625 "/></g></g></g><g fill="#2a6fd3" fill-opacity="1"><g transform="translate(81.885618, 90.704978)"><g><path d="M 50.59375 1.359375 C 43.9375 1.359375 37.847656 0.171875 32.328125 -2.203125 C 26.804688 -4.585938 22.019531 -7.859375 17.96875 -12.015625 C 13.925781 -16.179688 10.804688 -21.003906 8.609375 -26.484375 C 6.421875 -31.972656 5.328125 -37.78125 5.328125 -43.90625 C 5.328125 -50.03125 6.421875 -55.832031 8.609375 -61.3125 C 10.804688 -66.800781 13.925781 -71.625 17.96875 -75.78125 C 22.019531 -79.945312 26.804688 -83.21875 32.328125 -85.59375 C 37.847656 -87.976562 43.9375 -89.171875 50.59375 -89.171875 C 57.25 -89.171875 63.335938 -87.976562 68.859375 -85.59375 C 74.378906 -83.21875 79.160156 -79.929688 83.203125 -75.734375 C 87.253906 -71.535156 90.378906 -66.691406 92.578125 -61.203125 C 94.773438 -55.722656 95.875 -49.921875 95.875 -43.796875 C 95.875 -37.585938 94.773438 -31.757812 92.578125 -26.3125 C 90.378906 -20.875 87.253906 -16.070312 83.203125 -11.90625 C 79.160156 -7.75 74.378906 -4.5 68.859375 -2.15625 C 63.335938 0.1875 57.25 1.359375 50.59375 1.359375 Z M 80.546875 -43.796875 C 80.546875 -49.992188 79.1875 -55.472656 76.46875 -60.234375 C 73.75 -65.003906 70.097656 -68.75 65.515625 -71.46875 C 60.941406 -74.195312 55.894531 -75.5625 50.375 -75.5625 C 44.851562 -75.5625 39.84375 -74.195312 35.34375 -71.46875 C 30.84375 -68.75 27.269531 -65.003906 24.625 -60.234375 C 21.976562 -55.472656 20.65625 -49.992188 20.65625 -43.796875 C 20.65625 -37.972656 21.878906 -32.660156 24.328125 -27.859375 C 26.785156 -23.054688 30.242188 -19.253906 34.703125 -16.453125 C 39.171875 -13.648438 44.394531 -12.25 50.375 -12.25 C 56.351562 -12.25 61.59375 -13.648438 66.09375 -16.453125 C 70.59375 -19.253906 74.125 -23.035156 76.6875 -27.796875 C 79.257812 -32.554688 80.546875 -37.890625 80.546875 -43.796875 Z M 80.546875 -43.796875 "/></g></g></g><g fill="#2a6fd3" fill-opacity="1"><g transform="translate(176.812266, 90.704978)"><g><path d="M 17.46875 -16.90625 C 19.0625 -15.695312 20.742188 -14.828125 22.515625 -14.296875 C 24.296875 -13.765625 26.320312 -13.5 28.59375 -13.5 C 33.207031 -13.5 36.816406 -14.953125 39.421875 -17.859375 C 42.035156 -20.773438 43.34375 -25.222656 43.34375 -31.203125 L 43.34375 -80.890625 C 43.34375 -83.003906 44.078125 -84.800781 45.546875 -86.28125 C 47.023438 -87.757812 48.820312 -88.5 50.9375 -88.5 C 53.050781 -88.5 54.847656 -87.757812 56.328125 -86.28125 C 57.804688 -84.800781 58.546875 -83.003906 58.546875 -80.890625 L 58.546875 -29.71875 C 58.546875 -23.820312 57.425781 -18.53125 55.1875 -13.84375 C 52.957031 -9.15625 49.6875 -5.445312 45.375 -2.71875 C 41.070312 0 35.816406 1.359375 29.609375 1.359375 C 25.222656 1.359375 21.046875 0.660156 17.078125 -0.734375 C 13.109375 -2.140625 9.894531 -3.9375 7.4375 -6.125 C 4.976562 -8.320312 3.75 -10.628906 3.75 -13.046875 C 3.75 -15.085938 4.484375 -16.785156 5.953125 -18.140625 C 7.429688 -19.503906 9.078125 -20.1875 10.890625 -20.1875 C 12.398438 -20.1875 13.875 -19.660156 15.3125 -18.609375 Z M 17.46875 -16.90625 "/></g></g></g><g fill="#2a6fd3" fill-opacity="1"><g transform="translate(235.332353, 90.704978)"><g><path d="M 27.34375 -36.53125 L 50.375 -36.53125 L 39.140625 -71.921875 Z M 54.6875 -23.03125 L 23.03125 -23.03125 L 16.34375 -4.078125 C 15.207031 -0.898438 13.007812 0.6875 9.75 0.6875 C 7.789062 0.6875 6.148438 -0.0078125 4.828125 -1.40625 C 3.503906 -2.8125 2.84375 -4.421875 2.84375 -6.234375 C 2.84375 -6.992188 2.953125 -7.753906 3.171875 -8.515625 L 28.015625 -80.671875 C 28.847656 -83.085938 30.265625 -84.992188 32.265625 -86.390625 C 34.273438 -87.796875 36.566406 -88.5 39.140625 -88.5 C 41.710938 -88.5 44 -87.78125 46 -86.34375 C 48.007812 -84.90625 49.390625 -82.972656 50.140625 -80.546875 L 74.3125 -8.390625 C 74.539062 -7.640625 74.65625 -6.882812 74.65625 -6.125 C 74.65625 -4.3125 74.007812 -2.722656 72.71875 -1.359375 C 71.4375 0.00390625 69.8125 0.6875 67.84375 0.6875 C 66.332031 0.6875 64.972656 0.269531 63.765625 -0.5625 C 62.554688 -1.394531 61.722656 -2.53125 61.265625 -3.96875 Z M 54.6875 -23.03125 "/></g></g></g><g fill="#2a6fd3" fill-opacity="1"><g transform="translate(307.462382, 90.704978)"><g><path d="M 11.34375 -80.890625 C 11.34375 -83.003906 12.078125 -84.800781 13.546875 -86.28125 C 15.023438 -87.757812 16.828125 -88.5 18.953125 -88.5 C 21.066406 -88.5 22.859375 -87.757812 24.328125 -86.28125 C 25.804688 -84.800781 26.546875 -83.003906 26.546875 -80.890625 L 26.546875 -13.84375 L 52.875 -13.84375 C 54.832031 -13.84375 56.472656 -13.179688 57.796875 -11.859375 C 59.128906 -10.535156 59.796875 -8.890625 59.796875 -6.921875 C 59.796875 -5.023438 59.128906 -3.394531 57.796875 -2.03125 C 56.472656 -0.675781 54.832031 0 52.875 0 L 16 0 C 14.789062 0 13.710938 -0.472656 12.765625 -1.421875 C 11.816406 -2.367188 11.34375 -3.445312 11.34375 -4.65625 Z M 11.34375 -80.890625 "/></g></g></g><g fill="#2a6fd3" fill-opacity="1"><g transform="translate(362.466561, 90.704978)"><g><path d="M 50.59375 1.359375 C 43.9375 1.359375 37.847656 0.171875 32.328125 -2.203125 C 26.804688 -4.585938 22.019531 -7.859375 17.96875 -12.015625 C 13.925781 -16.179688 10.804688 -21.003906 8.609375 -26.484375 C 6.421875 -31.972656 5.328125 -37.78125 5.328125 -43.90625 C 5.328125 -50.03125 6.421875 -55.832031 8.609375 -61.3125 C 10.804688 -66.800781 13.925781 -71.625 17.96875 -75.78125 C 22.019531 -79.945312 26.804688 -83.21875 32.328125 -85.59375 C 37.847656 -87.976562 43.9375 -89.171875 50.59375 -89.171875 C 57.25 -89.171875 63.335938 -87.976562 68.859375 -85.59375 C 74.378906 -83.21875 79.160156 -79.929688 83.203125 -75.734375 C 87.253906 -71.535156 90.378906 -66.691406 92.578125 -61.203125 C 94.773438 -55.722656 95.875 -49.921875 95.875 -43.796875 C 95.875 -37.585938 94.773438 -31.757812 92.578125 -26.3125 C 90.378906 -20.875 87.253906 -16.070312 83.203125 -11.90625 C 79.160156 -7.75 74.378906 -4.5 68.859375 -2.15625 C 63.335938 0.1875 57.25 1.359375 50.59375 1.359375 Z M 80.546875 -43.796875 C 80.546875 -49.992188 79.1875 -55.472656 76.46875 -60.234375 C 73.75 -65.003906 70.097656 -68.75 65.515625 -71.46875 C 60.941406 -74.195312 55.894531 -75.5625 50.375 -75.5625 C 44.851562 -75.5625 39.84375 -74.195312 35.34375 -71.46875 C 30.84375 -68.75 27.269531 -65.003906 24.625 -60.234375 C 21.976562 -55.472656 20.65625 -49.992188 20.65625 -43.796875 C 20.65625 -37.972656 21.878906 -32.660156 24.328125 -27.859375 C 26.785156 -23.054688 30.242188 -19.253906 34.703125 -16.453125 C 39.171875 -13.648438 44.394531 -12.25 50.375 -12.25 C 56.351562 -12.25 61.59375 -13.648438 66.09375 -16.453125 C 70.59375 -19.253906 74.125 -23.035156 76.6875 -27.796875 C 79.257812 -32.554688 80.546875 -37.890625 80.546875 -43.796875 Z M 80.546875 -43.796875 "/></g></g></g><g fill="#2a6fd3" fill-opacity="1"><g transform="translate(457.393209, 90.704978)"><g><path d="M 15.421875 -88.5 C 17.472656 -88.5 19.234375 -87.757812 20.703125 -86.28125 C 22.179688 -84.800781 22.921875 -83.039062 22.921875 -81 L 22.921875 -6.8125 C 22.921875 -4.769531 22.179688 -3.007812 20.703125 -1.53125 C 19.234375 -0.0507812 17.398438 0.6875 15.203125 0.6875 C 13.160156 0.6875 11.398438 -0.0507812 9.921875 -1.53125 C 8.453125 -3.007812 7.71875 -4.769531 7.71875 -6.8125 L 7.71875 -81 C 7.71875 -83.039062 8.472656 -84.800781 9.984375 -86.28125 C 11.492188 -87.757812 13.304688 -88.5 15.421875 -88.5 Z M 15.421875 -88.5 "/></g></g></g><g fill="#2a6fd3" fill-opacity="1"><g transform="translate(481.775058, 90.704978)"><g><path d="M 25.078125 -6.6875 C 25.078125 -4.644531 24.359375 -2.90625 22.921875 -1.46875 C 21.484375 -0.03125 19.703125 0.6875 17.578125 0.6875 C 15.535156 0.6875 13.796875 -0.03125 12.359375 -1.46875 C 10.921875 -2.90625 10.203125 -4.644531 10.203125 -6.6875 L 10.203125 -75.671875 C 10.203125 -78.015625 10.769531 -80.148438 11.90625 -82.078125 C 13.039062 -84.003906 14.59375 -85.554688 16.5625 -86.734375 C 18.53125 -87.910156 20.6875 -88.5 23.03125 -88.5 C 28.09375 -88.5 31.835938 -86.226562 34.265625 -81.6875 L 60.578125 -30.75 L 60.578125 -81.125 C 60.578125 -83.164062 61.296875 -84.90625 62.734375 -86.34375 C 64.171875 -87.78125 65.910156 -88.5 67.953125 -88.5 C 69.992188 -88.5 71.734375 -87.78125 73.171875 -86.34375 C 74.609375 -84.90625 75.328125 -83.164062 75.328125 -81.125 L 75.328125 -7.484375 C 75.328125 -5.210938 74.53125 -3.28125 72.9375 -1.6875 C 71.351562 -0.101562 69.429688 0.6875 67.171875 0.6875 C 63.992188 0.6875 61.609375 -0.75 60.015625 -3.625 L 25.078125 -69.09375 Z M 25.078125 -6.6875 "/></g></g></g></g></g><g transform="matrix(1, 0, 0, 1, 101, 402)"><g clip-path="url(#09678ebb7b)"><g fill="#2a6fd3" fill-opacity="1"><g transform="translate(1.296745, 92.169874)"><g><path d="M 37.796875 -61.5625 L 37.796875 -16.078125 C 37.796875 -11.015625 36.234375 -6.960938 33.109375 -3.921875 C 29.992188 -0.890625 25.875 0.625 20.75 0.625 C 15.570312 0.625 11.421875 -0.921875 8.296875 -4.015625 C 5.179688 -7.109375 3.625 -11.332031 3.625 -16.6875 L 11.65625 -16.6875 C 11.71875 -13.6875 12.5 -11.242188 14 -9.359375 C 15.5 -7.472656 17.75 -6.53125 20.75 -6.53125 C 23.757812 -6.53125 26 -7.425781 27.46875 -9.21875 C 28.9375 -11.019531 29.671875 -13.304688 29.671875 -16.078125 L 29.671875 -61.5625 Z M 37.796875 -61.5625 "/></g></g></g><g fill="#2a6fd3" fill-opacity="1"><g transform="translate(47.311715, 92.169874)"><g><path d="M 3.796875 -24.375 C 3.796875 -29.320312 4.796875 -33.664062 6.796875 -37.40625 C 8.796875 -41.144531 11.546875 -44.046875 15.046875 -46.109375 C 18.554688 -48.171875 22.460938 -49.203125 26.765625 -49.203125 C 31.003906 -49.203125 34.679688 -48.285156 37.796875 -46.453125 C 40.921875 -44.628906 43.25 -42.335938 44.78125 -39.578125 L 44.78125 -48.40625 L 52.90625 -48.40625 L 52.90625 0 L 44.78125 0 L 44.78125 -9.015625 C 43.1875 -6.179688 40.816406 -3.835938 37.671875 -1.984375 C 34.523438 -0.128906 30.859375 0.796875 26.671875 0.796875 C 22.378906 0.796875 18.492188 -0.257812 15.015625 -2.375 C 11.535156 -4.5 8.796875 -7.472656 6.796875 -11.296875 C 4.796875 -15.128906 3.796875 -19.488281 3.796875 -24.375 Z M 44.78125 -24.296875 C 44.78125 -27.941406 44.039062 -31.117188 42.5625 -33.828125 C 41.09375 -36.535156 39.109375 -38.609375 36.609375 -40.046875 C 34.109375 -41.492188 31.359375 -42.21875 28.359375 -42.21875 C 25.347656 -42.21875 22.601562 -41.507812 20.125 -40.09375 C 17.65625 -38.6875 15.6875 -36.628906 14.21875 -33.921875 C 12.75 -31.210938 12.015625 -28.03125 12.015625 -24.375 C 12.015625 -20.664062 12.75 -17.441406 14.21875 -14.703125 C 15.6875 -11.960938 17.65625 -9.867188 20.125 -8.421875 C 22.601562 -6.984375 25.347656 -6.265625 28.359375 -6.265625 C 31.359375 -6.265625 34.109375 -6.984375 36.609375 -8.421875 C 39.109375 -9.867188 41.09375 -11.960938 42.5625 -14.703125 C 44.039062 -17.441406 44.78125 -20.640625 44.78125 -24.296875 Z M 44.78125 -24.296875 "/></g></g></g><g fill="#2a6fd3" fill-opacity="1"><g transform="translate(106.221523, 92.169874)"><g><path d="M 14.84375 -65.359375 L 14.84375 0 L 6.796875 0 L 6.796875 -65.359375 Z M 14.84375 -65.359375 "/></g></g></g><g fill="#2a6fd3" fill-opacity="1"><g transform="translate(127.153383, 92.169874)"><g><path d="M 33.828125 0 L 14.84375 -21.375 L 14.84375 0 L 6.796875 0 L 6.796875 -65.359375 L 14.84375 -65.359375 L 14.84375 -26.9375 L 33.46875 -48.40625 L 44.6875 -48.40625 L 21.90625 -24.296875 L 44.78125 0 Z M 33.828125 0 "/></g></g></g><g fill="#2a6fd3" fill-opacity="1"><g transform="translate(171.843541, 92.169874)"><g><path d="M 3.796875 -24.375 C 3.796875 -29.320312 4.796875 -33.664062 6.796875 -37.40625 C 8.796875 -41.144531 11.546875 -44.046875 15.046875 -46.109375 C 18.554688 -48.171875 22.460938 -49.203125 26.765625 -49.203125 C 31.003906 -49.203125 34.679688 -48.285156 37.796875 -46.453125 C 40.921875 -44.628906 43.25 -42.335938 44.78125 -39.578125 L 44.78125 -48.40625 L 52.90625 -48.40625 L 52.90625 0 L 44.78125 0 L 44.78125 -9.015625 C 43.1875 -6.179688 40.816406 -3.835938 37.671875 -1.984375 C 34.523438 -0.128906 30.859375 0.796875 26.671875 0.796875 C 22.378906 0.796875 18.492188 -0.257812 15.015625 -2.375 C 11.535156 -4.5 8.796875 -7.472656 6.796875 -11.296875 C 4.796875 -15.128906 3.796875 -19.488281 3.796875 -24.375 Z M 44.78125 -24.296875 C 44.78125 -27.941406 44.039062 -31.117188 42.5625 -33.828125 C 41.09375 -36.535156 39.109375 -38.609375 36.609375 -40.046875 C 34.109375 -41.492188 31.359375 -42.21875 28.359375 -42.21875 C 25.347656 -42.21875 22.601562 -41.507812 20.125 -40.09375 C 17.65625 -38.6875 15.6875 -36.628906 14.21875 -33.921875 C 12.75 -31.210938 12.015625 -28.03125 12.015625 -24.375 C 12.015625 -20.664062 12.75 -17.441406 14.21875 -14.703125 C 15.6875 -11.960938 17.65625 -9.867188 20.125 -8.421875 C 22.601562 -6.984375 25.347656 -6.265625 28.359375 -6.265625 C 31.359375 -6.265625 34.109375 -6.984375 36.609375 -8.421875 C 39.109375 -9.867188 41.09375 -11.960938 42.5625 -14.703125 C 44.039062 -17.441406 44.78125 -20.640625 44.78125 -24.296875 Z M 44.78125 -24.296875 "/></g></g></g><g fill="#2a6fd3" fill-opacity="1"><g transform="translate(230.753349, 92.169874)"><g><path d="M 16.609375 -41.78125 L 16.609375 -13.25 C 16.609375 -10.894531 17.109375 -9.226562 18.109375 -8.25 C 19.109375 -7.28125 20.84375 -6.796875 23.3125 -6.796875 L 29.234375 -6.796875 L 29.234375 0 L 22 0 C 17.519531 0 14.160156 -1.03125 11.921875 -3.09375 C 9.679688 -5.15625 8.5625 -8.539062 8.5625 -13.25 L 8.5625 -41.78125 L 2.296875 -41.78125 L 2.296875 -48.40625 L 8.5625 -48.40625 L 8.5625 -60.59375 L 16.609375 -60.59375 L 16.609375 -48.40625 L 29.234375 -48.40625 L 29.234375 -41.78125 Z M 16.609375 -41.78125 "/></g></g></g><g fill="#2a6fd3" fill-opacity="1"><g transform="translate(262.107064, 92.169874)"><g><path d="M 50.96875 -26.0625 C 50.96875 -24.53125 50.878906 -22.910156 50.703125 -21.203125 L 12.015625 -21.203125 C 12.304688 -16.429688 13.9375 -12.703125 16.90625 -10.015625 C 19.882812 -7.335938 23.492188 -6 27.734375 -6 C 31.210938 -6 34.113281 -6.804688 36.4375 -8.421875 C 38.757812 -10.046875 40.394531 -12.210938 41.34375 -14.921875 L 50 -14.921875 C 48.695312 -10.273438 46.101562 -6.492188 42.21875 -3.578125 C 38.332031 -0.660156 33.503906 0.796875 27.734375 0.796875 C 23.140625 0.796875 19.03125 -0.234375 15.40625 -2.296875 C 11.789062 -4.359375 8.953125 -7.285156 6.890625 -11.078125 C 4.828125 -14.878906 3.796875 -19.285156 3.796875 -24.296875 C 3.796875 -29.296875 4.796875 -33.679688 6.796875 -37.453125 C 8.796875 -41.222656 11.609375 -44.125 15.234375 -46.15625 C 18.859375 -48.1875 23.023438 -49.203125 27.734375 -49.203125 C 32.328125 -49.203125 36.390625 -48.195312 39.921875 -46.1875 C 43.453125 -44.1875 46.175781 -41.4375 48.09375 -37.9375 C 50.007812 -34.4375 50.96875 -30.476562 50.96875 -26.0625 Z M 42.65625 -27.734375 C 42.65625 -30.796875 41.976562 -33.429688 40.625 -35.640625 C 39.269531 -37.847656 37.429688 -39.523438 35.109375 -40.671875 C 32.785156 -41.816406 30.207031 -42.390625 27.375 -42.390625 C 23.3125 -42.390625 19.851562 -41.09375 17 -38.5 C 14.144531 -35.914062 12.507812 -32.328125 12.09375 -27.734375 Z M 42.65625 -27.734375 "/></g></g></g><g fill="#2a6fd3" fill-opacity="1"><g transform="translate(316.070922, 92.169874)"><g><path d="M 14.84375 -40.546875 C 16.25 -43.304688 18.257812 -45.453125 20.875 -46.984375 C 23.5 -48.515625 26.695312 -49.28125 30.46875 -49.28125 L 30.46875 -40.984375 L 28.359375 -40.984375 C 19.347656 -40.984375 14.84375 -36.097656 14.84375 -26.328125 L 14.84375 0 L 6.796875 0 L 6.796875 -48.40625 L 14.84375 -48.40625 Z M 14.84375 -40.546875 "/></g></g></g><g fill="#2a6fd3" fill-opacity="1"><g transform="translate(348.219509, 92.169874)"><g><path d="M 3.796875 -24.375 C 3.796875 -29.320312 4.796875 -33.664062 6.796875 -37.40625 C 8.796875 -41.144531 11.546875 -44.046875 15.046875 -46.109375 C 18.554688 -48.171875 22.460938 -49.203125 26.765625 -49.203125 C 31.003906 -49.203125 34.679688 -48.285156 37.796875 -46.453125 C 40.921875 -44.628906 43.25 -42.335938 44.78125 -39.578125 L 44.78125 -48.40625 L 52.90625 -48.40625 L 52.90625 0 L 44.78125 0 L 44.78125 -9.015625 C 43.1875 -6.179688 40.816406 -3.835938 37.671875 -1.984375 C 34.523438 -0.128906 30.859375 0.796875 26.671875 0.796875 C 22.378906 0.796875 18.492188 -0.257812 15.015625 -2.375 C 11.535156 -4.5 8.796875 -7.472656 6.796875 -11.296875 C 4.796875 -15.128906 3.796875 -19.488281 3.796875 -24.375 Z M 44.78125 -24.296875 C 44.78125 -27.941406 44.039062 -31.117188 42.5625 -33.828125 C 41.09375 -36.535156 39.109375 -38.609375 36.609375 -40.046875 C 34.109375 -41.492188 31.359375 -42.21875 28.359375 -42.21875 C 25.347656 -42.21875 22.601562 -41.507812 20.125 -40.09375 C 17.65625 -38.6875 15.6875 -36.628906 14.21875 -33.921875 C 12.75 -31.210938 12.015625 -28.03125 12.015625 -24.375 C 12.015625 -20.664062 12.75 -17.441406 14.21875 -14.703125 C 15.6875 -11.960938 17.65625 -9.867188 20.125 -8.421875 C 22.601562 -6.984375 25.347656 -6.265625 28.359375 -6.265625 C 31.359375 -6.265625 34.109375 -6.984375 36.609375 -8.421875 C 39.109375 -9.867188 41.09375 -11.960938 42.5625 -14.703125 C 44.039062 -17.441406 44.78125 -20.640625 44.78125 -24.296875 Z M 44.78125 -24.296875 "/></g></g></g><g fill="#2a6fd3" fill-opacity="1"><g transform="translate(407.129301, 92.169874)"><g><path d="M 14.84375 -39.484375 C 16.425781 -42.253906 18.789062 -44.566406 21.9375 -46.421875 C 25.09375 -48.273438 28.765625 -49.203125 32.953125 -49.203125 C 37.242188 -49.203125 41.140625 -48.171875 44.640625 -46.109375 C 48.148438 -44.046875 50.90625 -41.144531 52.90625 -37.40625 C 54.90625 -33.664062 55.90625 -29.320312 55.90625 -24.375 C 55.90625 -19.488281 54.90625 -15.128906 52.90625 -11.296875 C 50.90625 -7.472656 48.148438 -4.5 44.640625 -2.375 C 41.140625 -0.257812 37.242188 0.796875 32.953125 0.796875 C 28.828125 0.796875 25.1875 -0.128906 22.03125 -1.984375 C 18.882812 -3.835938 16.488281 -6.148438 14.84375 -8.921875 L 14.84375 22.96875 L 6.796875 22.96875 L 6.796875 -48.40625 L 14.84375 -48.40625 Z M 47.703125 -24.375 C 47.703125 -28.03125 46.960938 -31.210938 45.484375 -33.921875 C 44.015625 -36.628906 42.023438 -38.6875 39.515625 -40.09375 C 37.015625 -41.507812 34.265625 -42.21875 31.265625 -42.21875 C 28.328125 -42.21875 25.601562 -41.492188 23.09375 -40.046875 C 20.59375 -38.609375 18.59375 -36.519531 17.09375 -33.78125 C 15.59375 -31.039062 14.84375 -27.878906 14.84375 -24.296875 C 14.84375 -20.640625 15.59375 -17.441406 17.09375 -14.703125 C 18.59375 -11.960938 20.59375 -9.867188 23.09375 -8.421875 C 25.601562 -6.984375 28.328125 -6.265625 31.265625 -6.265625 C 34.265625 -6.265625 37.015625 -6.984375 39.515625 -8.421875 C 42.023438 -9.867188 44.015625 -11.960938 45.484375 -14.703125 C 46.960938 -17.441406 47.703125 -20.664062 47.703125 -24.375 Z M 47.703125 -24.375 "/></g></g></g><g fill="#2a6fd3" fill-opacity="1"><g transform="translate(466.039124, 92.169874)"><g><path d="M 10.953125 -56.265625 C 9.421875 -56.265625 8.125 -56.789062 7.0625 -57.84375 C 6 -58.90625 5.46875 -60.203125 5.46875 -61.734375 C 5.46875 -63.265625 6 -64.5625 7.0625 -65.625 C 8.125 -66.6875 9.421875 -67.21875 10.953125 -67.21875 C 12.421875 -67.21875 13.671875 -66.6875 14.703125 -65.625 C 15.734375 -64.5625 16.25 -63.265625 16.25 -61.734375 C 16.25 -60.203125 15.734375 -58.90625 14.703125 -57.84375 C 13.671875 -56.789062 12.421875 -56.265625 10.953125 -56.265625 Z M 14.84375 -48.40625 L 14.84375 0 L 6.796875 0 L 6.796875 -48.40625 Z M 14.84375 -48.40625 "/></g></g></g><g fill="#2a6fd3" fill-opacity="1"><g transform="translate(486.970999, 92.169874)"><g><path d="M 3.796875 -24.375 C 3.796875 -29.320312 4.796875 -33.664062 6.796875 -37.40625 C 8.796875 -41.144531 11.546875 -44.046875 15.046875 -46.109375 C 18.554688 -48.171875 22.460938 -49.203125 26.765625 -49.203125 C 31.003906 -49.203125 34.679688 -48.285156 37.796875 -46.453125 C 40.921875 -44.628906 43.25 -42.335938 44.78125 -39.578125 L 44.78125 -48.40625 L 52.90625 -48.40625 L 52.90625 0 L 44.78125 0 L 44.78125 -9.015625 C 43.1875 -6.179688 40.816406 -3.835938 37.671875 -1.984375 C 34.523438 -0.128906 30.859375 0.796875 26.671875 0.796875 C 22.378906 0.796875 18.492188 -0.257812 15.015625 -2.375 C 11.535156 -4.5 8.796875 -7.472656 6.796875 -11.296875 C 4.796875 -15.128906 3.796875 -19.488281 3.796875 -24.375 Z M 44.78125 -24.296875 C 44.78125 -27.941406 44.039062 -31.117188 42.5625 -33.828125 C 41.09375 -36.535156 39.109375 -38.609375 36.609375 -40.046875 C 34.109375 -41.492188 31.359375 -42.21875 28.359375 -42.21875 C 25.347656 -42.21875 22.601562 -41.507812 20.125 -40.09375 C 17.65625 -38.6875 15.6875 -36.628906 14.21875 -33.921875 C 12.75 -31.210938 12.015625 -28.03125 12.015625 -24.375 C 12.015625 -20.664062 12.75 -17.441406 14.21875 -14.703125 C 15.6875 -11.960938 17.65625 -9.867188 20.125 -8.421875 C 22.601562 -6.984375 25.347656 -6.265625 28.359375 -6.265625 C 31.359375 -6.265625 34.109375 -6.984375 36.609375 -8.421875 C 39.109375 -9.867188 41.09375 -11.960938 42.5625 -14.703125 C 44.039062 -17.441406 44.78125 -20.640625 44.78125 -24.296875 Z M 44.78125 -24.296875 "/></g></g></g></g></g><g clip-path="url(#fdd1195ba4)"><g clip-path="url(#e61f6277d3)"><g clip-path="url(#57ac61d36c)"><path fill="#2a6fd3" d="M 306.226562 631.625 C 308.359375 627.84375 310.261719 623.90625 312.707031 620.320312 C 315.855469 615.703125 319.582031 611.660156 324.25 608.59375 C 327.269531 606.613281 330.75 605.75 334.480469 605.617188 C 337.613281 605.507812 340.773438 605.859375 343.925781 606.082031 C 347.636719 606.34375 351.289062 606.226562 354.835938 605.429688 C 356.445312 605.070312 357.957031 604.480469 359.402344 603.710938 C 361.4375 602.621094 362.878906 600.945312 364.171875 599.09375 C 365.355469 597.398438 366.246094 595.523438 366.882812 593.519531 C 367.464844 591.671875 367.550781 589.707031 367.300781 587.695312 C 366.859375 584.121094 365.507812 580.804688 363.664062 577.621094 C 362.238281 575.152344 360.585938 572.835938 358.648438 570.742188 C 356.109375 568.003906 353.328125 565.550781 350.179688 563.546875 C 346.726562 561.351562 343.148438 559.484375 339.359375 558.113281 C 335.582031 556.746094 331.773438 556.097656 327.9375 556.640625 C 325.945312 556.921875 324.117188 557.625 322.402344 558.5625 C 321.984375 558.785156 321.359375 559.269531 320.996094 559.5 C 318.269531 561.207031 316.210938 563.625 314.199219 566.074219 C 311.382812 569.503906 309.246094 573.425781 306.90625 577.203125 C 305.054688 580.191406 303.035156 583.054688 300.722656 585.683594 C 298.332031 588.40625 295.726562 590.917969 293.097656 593.402344 C 292.429688 594.03125 291.636719 594.582031 291.0625 595.261719 C 290.484375 595.945312 289.714844 596.414062 289.210938 597.167969 C 288.929688 597.589844 288.472656 597.878906 288.09375 598.230469 C 285.121094 600.980469 282.265625 603.859375 279.546875 606.855469 C 276.058594 610.695312 272.898438 614.808594 271.023438 619.820312 C 269.777344 623.15625 269.085938 626.621094 269.777344 630.382812 C 270.480469 634.203125 272.390625 637.390625 275.320312 640.066406 C 277.242188 641.820312 279.328125 643.300781 281.664062 644.375 C 284.4375 645.648438 287.246094 646.089844 290.097656 645.609375 C 293.925781 644.960938 296.988281 643.011719 299.699219 640.460938 C 302.390625 637.929688 304.398438 634.859375 306.222656 631.628906 Z M 306.226562 631.625 " fill-opacity="1" fill-rule="nonzero"/></g></g></g><g clip-path="url(#492f9248c3)"><g clip-path="url(#d7514d755b)"><g clip-path="url(#1c96f7d33c)"><path fill="#2a6fd3" d="M 391.996094 574.398438 C 389.28125 571.304688 385.996094 570.144531 382.222656 570.765625 C 379.566406 571.207031 377.332031 572.429688 375.09375 574.144531 C 373 575.976562 371.203125 578.269531 370.632812 581.425781 C 369.910156 585.4375 372.5 589.949219 376.453125 591.59375 C 379.335938 592.792969 382.144531 592.757812 384.921875 591.980469 C 388.695312 590.925781 391.5625 588.707031 393.363281 585.269531 C 395.257812 581.65625 395.066406 577.902344 391.996094 574.398438 Z M 391.996094 574.398438 " fill-opacity="1" fill-rule="nonzero"/></g></g></g><g clip-path="url(#3b082b5cad)"><g clip-path="url(#6b2ca0fbcc)"><g clip-path="url(#762c100520)"><path fill="#2a6fd3" d="M 362.773438 566.761719 C 362.65625 569.75 364.972656 572.34375 367.980469 572.515625 C 372.054688 572.753906 374.867188 570.941406 376.523438 567.421875 C 377.132812 566.125 377.195312 564.667969 376.679688 563.1875 C 375.980469 561.179688 374.488281 560.097656 372.546875 559.648438 C 369.683594 558.980469 367.386719 560 365.351562 561.546875 C 363.902344 563 362.851562 564.597656 362.773438 566.761719 Z M 362.773438 566.761719 " fill-opacity="1" fill-rule="nonzero"/></g></g></g><g clip-path="url(#69c2f07c38)"><g clip-path="url(#a96b7ce4c6)"><g clip-path="url(#bd0fc850f4)"><path fill="#2a6fd3" d="M 352.582031 556.648438 C 352.003906 559.941406 354.421875 562.75 357.785156 562.691406 C 361.464844 562.628906 364.464844 559.976562 364.972656 556.339844 C 365.171875 554.917969 364.738281 553.550781 363.734375 552.417969 C 362.378906 550.878906 360.699219 550.566406 358.917969 550.738281 C 355.835938 551.039062 353.125 553.589844 352.582031 556.648438 Z M 352.582031 556.648438 " fill-opacity="1" fill-rule="nonzero"/></g></g></g><g clip-path="url(#9183132fa9)"><g clip-path="url(#6522fe4c54)"><g clip-path="url(#98825d2cea)"><path fill="#2a6fd3" d="M 341.46875 551.363281 C 341.203125 554.238281 343.421875 556.433594 346.253906 556.078125 C 349.289062 555.699219 351.191406 553.949219 351.976562 551.039062 C 352.808594 547.945312 350.085938 545.132812 346.894531 545.710938 C 345.566406 545.953125 344.539062 546.441406 343.585938 547.285156 C 342.378906 548.34375 341.621094 549.683594 341.464844 551.359375 Z M 341.46875 551.363281 " fill-opacity="1" fill-rule="nonzero"/></g></g></g><g clip-path="url(#eb8c7dcdc7)"><g clip-path="url(#0bce7143f7)"><g clip-path="url(#930a3ab508)"><path fill="#2a6fd3" d="M 334.640625 553.535156 C 335.640625 553.292969 336.457031 552.726562 337.148438 552.140625 C 338.222656 551.15625 338.957031 550.050781 339.183594 548.628906 C 339.640625 545.761719 337.628906 543.59375 334.792969 544.015625 C 332.015625 544.433594 330.277344 546.117188 329.574219 548.832031 C 329.195312 550.292969 329.519531 551.683594 330.785156 552.796875 C 331.976562 553.84375 333.308594 553.863281 334.640625 553.535156 Z M 334.640625 553.535156 " fill-opacity="1" fill-rule="nonzero"/></g></g></g></svg>