<svg width="140" height="48" viewBox="0 0 140 48" fill="none" xmlns="http://www.w3.org/2000/svg">
  <!-- E-passi logo with real brand colors -->
  <rect width="140" height="48" rx="6" fill="#00B4E6"/>
  <g transform="translate(16, 12)">
    <!-- E letter -->
    <path d="M0 0h12v3.5H4v4.5h7v3.5H4v5h8.5V20H0V0z" fill="white"/>
    <!-- Dash -->
    <rect x="15" y="9.5" width="4" height="2.5" fill="white"/>
    <!-- passi text -->
    <g transform="translate(22, 0)">
      <path d="M0 4c0-2.2 1.8-4 4-4h4c2.2 0 4 1.8 4 4v1c0 2.2-1.8 4-4 4H4c-2.2 0-4-1.8-4-4V4zM3 4v1c0 .55.45 1 1 1h4c.55 0 1-.45 1-1V4c0-.55-.45-1-1-1H4c-.55 0-1 .45-1 1z" fill="white"/>
      <path d="M15 0h3v9h-3V0z" fill="white"/>
      <path d="M21 4c0-2.2 1.8-4 4-4h2v3h-2c-.55 0-1 .45-1 1v5h-3V4z" fill="white"/>
      <path d="M30 4c0-2.2 1.8-4 4-4h2v3h-2c-.55 0-1 .45-1 1v5h-3V4z" fill="white"/>
      <path d="M39 0h3v9h-3V0z" fill="white"/>
    </g>
  </g>
  <!-- passi text below -->
  <text x="70" y="38" font-family="Arial, sans-serif" font-size="9" font-weight="400" fill="white" text-anchor="middle">Hyvinvointietu</text>
</svg>
