<svg width="140" height="48" viewBox="0 0 140 48" fill="none" xmlns="http://www.w3.org/2000/svg">
  <!-- Smartum logo with real brand colors -->
  <rect width="140" height="48" rx="6" fill="#00A651"/>
  <!-- Smartum wordmark -->
  <g transform="translate(18, 14)">
    <!-- S -->
    <path d="M0 5c0-1.66 1.34-3 3-3h5c.55 0 1 .45 1 1v1H7V3.5c0-.28-.22-.5-.5-.5h-3c-.28 0-.5.22-.5.5v1c0 .28.22.5.5.5h4c1.66 0 3 1.34 3 3v2c0 1.66-1.34 3-3 3H3c-.55 0-1-.45-1-1v-1h2v.5c0 .28.22.5.5.5h3c.28 0 .5-.22.5-.5v-1c0-.28-.22-.5-.5-.5H3c-1.66 0-3-1.34-3-3V5z" fill="white"/>
    <!-- M -->
    <path d="M14 2h2.5l2 4 2-4H23v11h-2.5V6.5l-2 3.5h-1l-2-3.5V13H14V2z" fill="white"/>
    <!-- A -->
    <path d="M27 2h2.5l3.5 11h-2.5l-.5-1.8h-3l-.5 1.8H24L27 2zm1.25 2.5L27.5 8h1.5l-.75-3.5z" fill="white"/>
    <!-- R -->
    <path d="M36 2h4c1.66 0 3 1.34 3 3v1c0 1.1-.6 2.05-1.5 2.6L43 13h-3l-1.5-4H38v4h-2V2zm2 2v3h2c.55 0 1-.45 1-1V5c0-.55-.45-1-1-1h-2z" fill="white"/>
    <!-- T -->
    <path d="M46 2h7v2h-2.5v9H48V4h-2.5V2z" fill="white"/>
    <!-- U -->
    <path d="M56 2h2v7c0 1.1.9 2 2 2s2-.9 2-2V2h2v7c0 2.2-1.8 4-4 4s-4-1.8-4-4V2z" fill="white"/>
    <!-- M -->
    <path d="M68 2h2.5l2 4 2-4H77v11h-2.5V6.5l-2 3.5h-1l-2-3.5V13H68V2z" fill="white"/>
  </g>
  <!-- Subtext -->
  <text x="70" y="40" font-family="Arial, sans-serif" font-size="7" font-weight="400" fill="white" text-anchor="middle" opacity="0.9">Liikunta- ja kulttuurisetelit</text>
</svg>
